<?xml version="1.0" encoding="UTF-8"?>
<svg width="442px" height="474px" viewBox="0 0 442 474" version="1.1" xmlns="http://www.w3.org/2000/svg" xmlns:xlink="http://www.w3.org/1999/xlink">
    <title>006-atom</title>
    <g id="Page-1" stroke="none" stroke-width="1" fill="none" fill-rule="evenodd">
        <g id="006-atom" fill="#FFFFFF" fill-rule="nonzero">
            <path d="M222,182 C191.624339,182 167,206.624339 167,237 C167,267.375661 191.624339,292 222,292 C252.375661,292 277,267.375661 277,237 C276.966932,206.638047 252.361953,182.033068 222,182 L222,182 Z M222,278 C199.356325,278 181,259.643675 181,237 C181,214.356325 199.356325,196 222,196 C244.643675,196 263,214.356325 263,237 C262.975749,259.633622 244.633622,277.975749 222,278 Z" id="Shape"></path>
            <path d="M246,230 C242.134007,230 239,233.134007 239,237 C238.978804,243.056728 235.754524,248.650146 230.524,251.704 C228.363258,252.963718 227.038701,255.280489 227.049215,257.781606 C227.059855,260.282723 228.403959,262.588207 230.575278,263.829606 C232.746598,265.071004 235.415258,265.059719 237.576,263.8 C247.102788,258.230666 252.97049,248.03523 253,237 C253,233.134007 249.865993,230 246,230 Z" id="Path"></path>
            <path d="M402.92,220.64 C405.471562,221.310408 408.097852,221.654487 410.736,221.664 C423.268728,221.656618 434.564447,214.10466 439.3611,202.52617 C444.157753,190.947679 441.511861,177.620092 432.656,168.752 C432.148,168.248 431.608,167.792 431.056,167.324 C436.256,148.468 435.056,132.044 427.244,118.5 C410.444,89.38 366.328,79.84 305.796,91.892 C285.904,33.444 255.568,0 222,0 C188.432,0 158.1,33.44 138.188,91.896 C77.644,79.836 33.54,89.38 16.744,118.496 C9.172,131.576 7.844,148.012 12.672,166.256 C0.914022961,175.461307 -2.61035338,191.740972 4.28756023,204.985084 C11.1854738,218.229195 26.5451478,224.673504 40.828,220.316 C44.98,225.84 49.528,231.428 54.428,237.024 C13.752,283.44 -0.044,326.412 16.74,355.5 C28.8,376.408 54.904,387.252 91.072,387.252 C106.904913,387.057929 122.681587,385.327143 138.18,382.084 C158.088,440.548 188.428,474 222,474 C237.168,474 252.128,466.888 265.572,453.504 C279.218214,459.483206 295.187889,454.90356 303.591448,442.601111 C311.995006,430.298661 310.452853,413.757033 299.92,403.22 C299.416,402.712 298.876,402.252 298.344,401.788 C300.964,395.592 303.472,388.988 305.84,382.084 C321.331324,385.32925 337.101569,387.060065 352.928,387.252 C389.092,387.252 415.2,376.404 427.26,355.5 C444.06,326.412 430.248,283.44 389.58,237.028 C394.3,231.64 398.756,226.16 402.92,220.64 Z M422.752,202.696 C416.109174,209.320145 405.358826,209.320145 398.716,202.696 L398.716,202.696 C392.084146,196.058799 392.087037,185.302549 398.722456,178.668913 C405.357875,172.035276 416.114125,172.035276 422.749544,178.668913 C429.384963,185.302549 429.387854,196.058799 422.756,202.696 L422.752,202.696 Z M415.132,125.496 C420.608,135.004 421.664,146.824 418.368,160.696 C404.856796,157.260035 390.714792,163.272154 383.814086,175.385731 C376.91338,187.499308 378.953983,202.730125 388.8,212.6 C389.304,213.108 389.844,213.564 390.376,214.032 C387.128,218.261333 383.698667,222.458667 380.088,226.624 C362.930107,208.807588 344.242489,192.530542 324.24,177.98 C321.627474,153.391228 316.889763,129.074994 310.08,105.304 C362.832,95.104 401.844,102.46 415.132,125.492 L415.132,125.496 Z M296.356,365.728 C276.881438,360.97615 257.790588,354.770754 239.244,347.164 C251.184,341.392 263.076,335.12 274.744,328.384 C286.504,321.584 297.884,314.416 308.744,306.996 C306.088494,326.855455 301.947551,346.487828 296.356,365.728 Z M147.644,365.728 C142.048088,346.48822 137.903129,326.855819 135.244,306.996 C146.132,314.416 157.508,321.592 169.264,328.384 C180.92,335.12 192.8,341.4 204.76,347.164 C186.212056,354.770789 167.119874,360.976182 147.644,365.728 Z M147.644,108.272 C167.11873,113.023258 186.209624,119.228667 204.756,126.836 C192.812,132.608 180.924,138.88 169.256,145.636 C157.496,152.436 146.116,159.604 135.236,167.024 C137.896351,147.157162 142.044,127.518005 147.644,108.272 L147.644,108.272 Z M118,277.136 C102.121113,264.908855 87.1953829,251.491476 73.352,237 C87.1966199,222.509799 102.12225,209.092511 118,196.864 C117.012,210.064 116.488,223.516 116.488,237 C116.488,250.484 117.004,263.92 118,277.136 Z M176.268,316.256 C161.116,307.508 146.616,298.116 133.04,288.348 C131.368,271.584 130.488,254.348 130.488,237 C130.488,219.652 131.368,202.42 133.04,185.652 C146.604,175.892 161.108,166.496 176.268,157.744 C191.268,149.076 206.644,141.196 222.004,134.232 C237.376,141.2 252.748,149.08 267.748,157.744 C282.9,166.492 297.4,175.884 310.976,185.652 C312.648,202.416 313.528,219.652 313.528,237 C313.528,254.348 312.648,271.58 310.976,288.348 C297.412,298.108 282.908,307.504 267.748,316.256 C252.748,324.924 237.372,332.804 222.012,339.768 C206.632,332.8 191.26,324.92 176.26,316.256 L176.268,316.256 Z M296.364,108.256 C301.959912,127.49578 306.104871,147.128181 308.764,166.988 C297.876,159.568 286.5,152.392 274.764,145.6 C263.08,138.88 251.2,132.6 239.24,126.836 C257.787944,119.229211 276.880126,113.023818 296.356,108.272 L296.364,108.256 Z M326,196.864 C341.878887,209.091145 356.804617,222.508524 370.648,237 C356.80338,251.490201 341.87775,264.907489 326,277.136 C326.988,263.936 327.512,250.484 327.512,237 C327.512,223.516 326.996,210.08 326,196.864 Z M222,14 C248.552,14 274.452,44.116 292.06,94.9 C268.057613,100.866868 244.615745,108.896738 221.996,118.9 C199.379449,108.89561 175.940138,100.865699 151.94,94.9 C169.552,44.112 195.448,14 222,14 Z M19.716,202.696 L19.716,202.696 C13.9629731,196.960369 13.0640771,187.959021 17.5692565,181.198981 C22.074436,174.438941 30.7282856,171.80395 38.2363792,174.906097 C45.7444727,178.008243 50.014618,185.983088 48.4343396,193.95162 C46.8540613,201.920152 39.8637169,207.661874 31.74,207.664144 C27.2277267,207.682621 22.8959274,205.893431 19.712,202.696 L19.716,202.696 Z M53.656,168.752 C46.2987865,161.407679 35.7501469,158.239933 25.564,160.316 C22.332,146.612 23.412,134.916 28.864,125.516 C42.156,102.472 81.168,95.116 133.92,105.32 C127.110024,129.092505 122.370996,153.40997 119.756,178 C99.7529406,192.535125 81.0639284,208.797497 63.904,226.6 C60.008,222.104 56.368,217.634667 52.984,213.192 C53.204,212.984 53.44,212.792 53.656,212.58 C65.7464,200.467427 65.7464,180.852573 53.656,168.74 L53.656,168.752 Z M28.856,348.5 C15.6,325.492 28.728,288.016 63.924,247.4 C81.0786655,265.20801 99.762262,281.477021 119.76,296.02 C122.372526,320.608772 127.110237,344.925006 133.92,368.696 C81.164,378.888 42.152,371.536 28.864,348.5 L28.856,348.5 Z M290.02,437.16 C284.283361,442.915156 275.279556,443.81496 268.51745,439.308878 C261.755344,434.802796 259.119406,426.146586 262.2224,418.636441 C265.325394,411.126296 273.302576,406.855148 281.273209,408.436245 C289.243841,410.017342 294.986663,417.010063 294.988001,425.136 C294.98918,429.643657 293.202565,433.967782 290.02,437.16 Z M278.02,394.148 C265.975436,394.147121 255.021522,401.12555 249.93209,412.042015 C244.842657,422.958479 246.539844,435.835057 254.284,445.06 C243.884,454.968 233.052,460 222.02,460 C195.468,460 169.568,429.884 151.96,379.1 C175.962387,373.133132 199.404255,365.103262 222.024,355.1 C244.645817,365.104999 268.090493,373.134914 292.096,379.1 C290.136,384.72 288.096,390.1 285.96,395.2 C283.363287,394.506768 280.68765,394.153154 278,394.148 L278.02,394.148 Z M415.156,348.5 C401.864,371.54 362.852,378.9 310.1,368.696 C316.909976,344.923495 321.649004,320.60603 324.264,296.016 C344.253924,281.47401 362.92952,265.206312 380.076,247.4 C415.272,288.016 428.4,325.492 415.136,348.5 L415.156,348.5 Z" id="Shape"></path>
        </g>
    </g>
</svg>