<?xml version="1.0" encoding="UTF-8"?>
<svg width="512px" height="512px" viewBox="0 0 512 512" version="1.1" xmlns="http://www.w3.org/2000/svg" xmlns:xlink="http://www.w3.org/1999/xlink">
    <title>004-cutlery</title>
    <g id="Page-1" stroke="none" stroke-width="1" fill="none" fill-rule="evenodd">
        <g id="004-cutlery" fill="#FFFFFF" fill-rule="nonzero">
            <path d="M511.97,450.021 C511.454,433.542 504.083,417.834 491.74,406.909 L321.436,252.714 L364.663,204.953 C390.463,211.295 419.032,204.603 439.526,184.108 C454.099,169.535 469.646,142.431 478.213,116.666 C489.777,81.88 487.682,55.286 472.153,39.759 C456.627,24.23 430.032,22.134 395.246,33.699 C369.48,42.265 342.377,57.812 327.804,72.386 C307.719,92.469 300.473,120.886 306.963,147.267 L255.977,193.446 L206.022,148.217 C212.981,123.018 206.596,94.874 186.828,75.106 C180.125,68.403 123.113,11.39 116.118,4.395 C110.26,-1.463 100.763,-1.463 94.905,4.395 C89.047,10.252 89.047,19.75 94.905,25.608 L135.21,65.914 L111.168,89.956 L70.861,49.649 C65.004,43.79 55.507,43.792 49.648,49.649 C43.79,55.506 43.79,65.004 49.648,70.862 L89.953,111.167 L65.911,135.209 L25.607,94.904 C19.75,89.047 10.252,89.047 4.394,94.904 C-1.464,100.761 -1.464,110.259 4.394,116.117 C5.557,117.28 66.9,178.624 75.104,186.828 C94.375,206.099 122.254,213.192 148.215,206.022 L190.505,252.73 L20.26,406.909 C7.918,417.834 0.546,433.542 0.03,450.021 C-1.028,483.852 26.153,512 60.124,512 C76.816,512 93.453,504.887 105.089,491.743 L255.974,325.038 L406.906,491.738 C417.968,504.235 434.316,512 451.876,512 C485.934,512 513.025,483.771 511.97,450.021 Z M349.016,93.599 C365.656,76.961 407.433,56.432 434.96,56.432 C442.295,56.432 447.906,57.939 450.939,60.972 C457.401,67.434 456.931,85.58 449.744,107.201 C442.63,128.601 429.704,151.503 418.312,162.895 C403.725,177.482 382.506,180.774 365.024,173.588 C364.999,173.58 364.975,173.568 364.951,173.56 C332.614,160.207 324.358,118.256 349.016,93.599 Z M320.4,175.572 C324.853,181.499 330.112,186.836 336.355,191.524 L299.197,232.58 L278.324,213.681 L320.4,175.572 Z M96.317,165.615 L87.124,156.422 C117.32,126.226 73.115,170.431 156.421,87.126 L165.613,96.318 C179.228,109.934 182.213,129.919 174.975,146.306 C170.654,155.539 167.164,158.405 159.956,165.615 C142.411,183.16 113.862,183.16 96.317,165.615 L96.317,165.615 Z M82.789,471.675 C62.892,493.381 29.162,478.257 30.015,450.959 C30.275,442.663 33.63,435.298 40.328,429.208 L210.64,274.968 L235.739,302.69 L82.789,471.675 Z M473.184,473.184 C460.743,485.623 440.698,484.695 429.339,471.818 C429.251,471.717 433.744,476.682 175.751,191.737 C179.691,188.494 187.991,180.301 191.735,175.752 C506.718,460.946 373.871,340.66 471.673,429.209 C485.81,442.192 484.621,461.744 473.184,473.184 L473.184,473.184 Z" id="Shape"></path>
        </g>
    </g>
</svg>