<?xml version="1.0" encoding="UTF-8"?>
<svg width="246px" height="320px" viewBox="0 0 246 320" version="1.1" xmlns="http://www.w3.org/2000/svg" xmlns:xlink="http://www.w3.org/1999/xlink">
    <title>002-foot</title>
    <g id="Page-1" stroke="none" stroke-width="1" fill="none" fill-rule="evenodd">
        <g id="002-foot" fill="#FFFFFF" fill-rule="nonzero">
            <path d="M239.44,278.112 C234.889664,273.105223 228.491343,270.174827 221.728,270 C213.5206,269.955493 205.434404,268.015737 198.1,264.332 L135.528,231.636 C124.501923,225.859027 117.887677,214.153768 118.628,201.728 L130.356,8.04 C130.589064,4.18063417 127.649366,0.863064164 123.79,0.63 C119.930634,0.396935836 116.613064,3.33663417 116.38,7.196 L104.652,200.884 C103.58599,218.818123 113.135904,235.710511 129.052,244.044 L191.624,276.752 C200.857457,281.43224 211.048488,283.912916 221.4,284 C224.335669,284.068903 227.113566,285.343053 229.080933,287.523046 C231.048299,289.70304 232.031681,292.596676 231.8,295.524 C231.053422,301.257601 226.104538,305.506155 220.324,305.376 L163.644,305.376 C148.701588,305.205027 133.850456,303.020008 119.492,298.88 C111.822557,296.88604 103.92413,295.909663 96,295.976 C85.1898605,295.722129 74.4430814,297.695027 64.428,301.772 C59.7928236,304.039097 54.7188471,305.267663 49.56,305.372 L46.576,305.372 C28.6929352,305.345565 14.2024347,290.855065 14.176,272.972 L14.176,272.48 C14.2427596,259.068442 17.2464865,245.834294 22.976,233.708 C34.5663601,209.702735 38.13919,182.609243 33.168,156.42 L31.504,148.476 C21.8,102.4 14.168,66 14.168,7.6 C14.168,3.73400675 11.0339932,0.6 7.168,0.6 C3.30200675,0.6 0.168,3.73400675 0.168,7.6 C0.168,67.44 8.328,106.32 17.768,151.34 L19.432,159.272 C23.771604,182.516008 20.5472335,206.53897 10.232,227.816 C3.65097674,241.785108 0.210315325,257.026419 0.152,272.468 L0.152,272.96 C0.18285668,298.57322 20.9387798,319.329143 46.552,319.36 L49.536,319.36 C56.731087,319.257282 63.8166451,317.582142 70.296,314.452 C78.4692721,311.250976 87.2012923,309.720832 95.976,309.952 C102.64859,309.882895 109.301394,310.689785 115.764,312.352 C131.327681,316.831666 147.425333,319.18765 163.62,319.356 L220.3,319.356 C233.421977,319.53843 244.487435,309.619715 245.736,296.556 C246.276163,289.802132 243.997165,283.125856 239.44,278.112 L239.44,278.112 Z" id="Path"></path>
            <path d="M48.268,264.00001 C50.8478142,263.997684 53.2172481,262.576575 54.4340994,260.301774 C55.6509506,258.026973 55.5179558,255.267248 54.088,253.12 C51.2326881,248.828748 52.3967479,243.035312 56.6880002,240.18 C60.9792526,237.324688 66.7726877,238.488748 69.628,242.78 C71.0134759,244.862144 73.4045191,246.046982 75.9004466,245.888196 C78.3963741,245.729411 80.6179952,244.251126 81.7284467,242.010196 C82.8388982,239.769267 82.669476,237.106144 81.284,235.024 C76.7084032,227.981389 68.7013802,223.940695 60.3179729,224.443625 C51.9345656,224.946555 44.4680426,229.915525 40.7672204,237.454647 C37.0663982,244.99377 37.7021853,253.940021 42.432,260.88 C43.731383,262.832482 45.9226713,264.003973 48.268,264.00001 L48.268,264.00001 Z" id="Path"></path>
        </g>
    </g>
</svg>