<?xml version="1.0" encoding="UTF-8"?>
<svg width="330px" height="293px" viewBox="0 0 330 293" version="1.1" xmlns="http://www.w3.org/2000/svg" xmlns:xlink="http://www.w3.org/1999/xlink">
    <!-- Generator: Sketch 60 (88103) - https://sketch.com -->
    <title>fpo3</title>
    <desc>Created with Sketch.</desc>
    <g id="Page-1" stroke="none" stroke-width="1" fill="none" fill-rule="evenodd">
        <g id="fpo3" transform="translate(-1.000000, 0.000000)" fill="#4B4B4B" fill-rule="nonzero">
            <path d="M327.174,254.923 L187.674,13.355 C183.158,5.534 174.813,0.717 165.781,0.717 C156.75,0.717 148.404,5.533 143.888,13.355 L4.388,254.923 C-0.13,262.744 -0.13,272.383 4.386,280.205 C8.902,288.027 17.248,292.846 26.281,292.846 L305.281,292.846 C314.313,292.846 322.66,288.028 327.176,280.205 C331.691,272.383 331.691,262.744 327.174,254.923 Z M26.281,267.565 L165.781,25.997 L305.281,267.565 L26.281,267.565 Z" id="Shape"></path>
            <path d="M148.281,113.031 L155.531,196.031 C155.954,200.917 159.832,204.944 164.886,205.386 C170.547,205.881 175.537,201.692 176.031,196.031 L183.281,113.031 C183.359,112.061 183.369,110.974 183.281,109.974 C182.437,100.308 173.918,93.158 164.253,94.001 C154.588,94.846 147.437,103.367 148.281,113.031 Z" id="Path"></path>
            <circle id="Oval" cx="165.781" cy="225.031" r="14.5"></circle>
        </g>
    </g>
</svg>