<?xml version="1.0" encoding="UTF-8"?>
<svg width="2296px" height="3085px" viewBox="0 0 2296 3085" version="1.1" xmlns="http://www.w3.org/2000/svg" xmlns:xlink="http://www.w3.org/1999/xlink">
    <!-- Generator: Sketch 57.1 (83088) - https://sketch.com -->
    <title>goddess</title>
    <desc>Created with Sketch.</desc>
    <g id="Page-1" stroke="none" stroke-width="1" fill="none" fill-rule="evenodd">
        <g id="Artboard" transform="translate(-1065.000000, -818.000000)" fill="#212C62" fill-rule="nonzero">
            <g id="Asset-1" transform="translate(257.000000, 818.000000)">
                <g id="goddess" transform="translate(808.000000, 0.000000)">
                    <g id="Leaves">
                        <path class="leaf" d="M860.310247,1169 C860.310247,1169 810.009966,1139.02305 744.704139,1104.19068 C692.058192,1076.40872 652.827584,1028.62465 635.861094,971.616553 C618.279756,904.53743 614.398422,834.609303 624.448425,766 C662.998806,802.97186 706.534712,834.378689 753.792005,859.308539 C825.438203,894.985333 962.178883,958.528025 912.301293,1169 C912.301293,1169 848.897578,1008.77108 760.132376,975.627554 C759.286993,975.627554 842.345861,1090.04662 860.310247,1169 Z" id="Path"></path>
                        <path class="leaf" d="M446.148776,995 C446.148776,995 397.641728,966.208536 334.371666,931.952998 C283.40342,905.230772 245.391023,859.170658 228.921563,804.177742 C211.493527,739.607415 207.474704,672.171883 217.111151,606 C254.315315,641.99777 296.501913,672.5 342.385874,696.577526 C411.561142,731.04322 543.795571,792.198811 495.710324,995 C495.710324,995 434.971065,840.745003 348.080179,808.591032 C348.50198,808.591032 428.854959,919.133441 446.148776,995 Z" id="Path"></path>
                        <path class="leaf" d="M925.539936,808 C925.539936,808 879.561607,780.659026 820.085052,748.901433 C772.139706,723.551315 736.42119,680.052102 720.957462,628.180516 C704.546992,567.187475 700.743888,503.504083 709.779244,441 C744.927996,474.416617 784.616441,502.736158 827.677804,525.126074 C893.059832,557.724928 1017.49659,615.561605 972.361904,807.158739 C972.361904,807.158739 915.205357,661.2 833.583277,630.914613 C833.372368,631.124928 909.088974,736.282521 925.539936,808 Z" id="Path"></path>
                        <path class="leaf" d="M547.870903,678.894737 C547.870903,678.894737 515.056525,656.789474 471.935067,630.894737 C437.319058,610.133065 412.523516,576.285493 403.151083,537 C393.616306,490.821185 393.616306,443.178815 403.151083,397 C427.854848,423.522663 456.181731,446.415949 487.290513,465 C534.408594,491.947368 624.858481,539.947368 583.419812,681 C583.419812,681 546.81916,570.052632 487.290513,544.157895 C486.449119,543.947368 539.246611,624.789474 547.870903,678.894737 Z" id="Path"></path>
                        <path class="leaf" d="M379.034929,1138.58667 C379.034929,1138.58667 341.405563,1148.25242 294.94696,1162.54092 C257.184536,1174.11133 216.353951,1170.02254 181.638422,1151.19417 C141.285465,1128.28229 106.022906,1097.3968 78,1060.42018 C113.654061,1059.79532 149.040768,1054.136 183.109961,1043.61018 C233.562743,1026.80018 327.531048,992.339689 403,1114.63242 C403,1114.63242 297.890039,1068.82518 240.71022,1095.30093 C240.71022,1095.30093 333.627426,1110.00967 379.034929,1138.58667 Z" id="Path"></path>
                        <path class="leaf" d="M514.996103,1371.82122 C514.996103,1371.82122 465.432051,1386.122 403.635168,1407.36287 C354.162638,1424.36234 299.920719,1420.87779 253.044812,1397.68881 C199.002627,1369.05805 151.357386,1329.77766 113,1282.23102 C159.961328,1279.70712 206.32871,1270.57354 250.724793,1255.10159 C316.739893,1230.70614 440.544569,1180.8637 546,1339.22384 C546,1339.22384 405.111544,1283.49285 330.027277,1320.92725 C330.238188,1320.71695 453.410132,1336.06926 514.996103,1371.82122 Z" id="Path"></path>
                        <path class="leaf" d="M291.79798,1548.64494 C291.79798,1548.64494 255.851852,1558.94969 211.024916,1574.30167 C175.114115,1586.5887 135.755056,1584.09004 101.706397,1567.36174 C62.404745,1546.49312 27.7969373,1517.86932 0,1483.24132 C34.1031025,1481.48005 67.7798662,1474.89453 100.014815,1463.68332 C148.013468,1446.01803 237.244444,1409.84625 314,1524.25002 C314,1524.25002 211.870707,1484.08252 157.317172,1511.21136 C157.317172,1511.63196 247.182492,1522.77791 291.79798,1548.64494 Z" id="Path"></path>
                        <path class="leaf" d="M863.813084,1517.91067 C863.813084,1517.91067 829.327103,1531.83676 786.429907,1551.24889 C752.042673,1566.98958 712.794505,1568.20604 677.504673,1554.62491 C636.735758,1537.61631 599.824709,1512.4939 569,1480.77443 C602.594348,1475.62102 635.298429,1465.74774 666.149533,1451.44523 C711.990654,1429.07908 797.154206,1384.55779 884,1491.7465 C884,1491.7465 778.859813,1460.94029 727.341121,1493.43451 C727.130841,1493.43451 817.130841,1496.81053 863.813084,1517.91067 Z" id="Path"></path>
                        <path class="leaf" d="M923,1725.21108 C923,1725.21108 905.459848,1758.10921 885.172443,1800.91895 C869.062293,1835.23896 839.82954,1861.67577 804.022823,1874.30707 C761.745551,1887.76649 717.195651,1892.6424 673,1888.64728 C695.317414,1863.20744 714.019299,1834.82296 728.579036,1804.29311 C749.71175,1757.47655 785.214708,1668.27202 921.309383,1693.36738 C921.309383,1693.36738 820.928994,1738.49686 802.543533,1796.49035 C802.543533,1795.64681 873.126796,1739.12952 923,1725.21108 Z" id="Path"></path>
                        <path class="leaf" d="M598.161757,1721.0041 C598.161757,1721.0041 553.325656,1734.03521 497.122657,1753.16151 C452.213301,1768.80261 402.883937,1765.69578 360.298875,1744.54417 C311.625647,1718.23933 268.690018,1682.51385 234,1639.45459 C276.626757,1637.14815 318.717192,1628.87017 359.035886,1614.86363 C419.027852,1592.37446 531.012855,1547.18594 627,1690.94848 C627,1690.94848 499.01714,1640.2953 430.605249,1674.34433 C429.763257,1674.55451 541.537761,1688.42633 598.161757,1721.0041 Z" id="Path"></path>
                        <path class="leaf" d="M875.962175,447.028179 C875.962175,447.028179 852.095642,417.699656 820.414403,382.041237 C794.838077,353.476564 781.824292,315.842839 784.297792,277.597938 C788.522468,233.25813 801.592752,190.212471 822.737694,151 C837.855577,181.670527 857.192362,210.078475 880.18634,235.398625 C915.458119,272.956014 983.889594,340.896907 906.798581,458 C906.798581,458 904.686498,347.015808 858.009473,307.137457 C858.009473,307.55945 882.720839,395.334021 875.962175,447.028179 Z" id="Path"></path>
                        <path class="leaf" d="M644.672232,389.536339 C644.672232,389.536339 627.139312,368.377185 602.927184,340.870285 C584.052292,319.530256 574.425824,291.397861 576.210353,262.793008 C579.542908,229.548967 589.407729,197.31782 605.223162,168 C616.199427,191.000476 630.246247,212.360051 646.96821,231.477461 C673.058865,259.619135 723.570374,311.24747 667.840734,398 C667.840734,398 666.170932,315.056118 631.731267,285.221711 C641.189345,319.136875 645.551979,354.30323 644.672232,389.536339 L644.672232,389.536339 Z" id="Path"></path>
                        <path class="leaf" d="M1434.87892,1174 C1434.87892,1174 1485.21755,1144.02305 1550.78467,1109.19068 C1603.35972,1081.32746 1642.52688,1033.56427 1659.49918,976.616553 C1677.492,909.613289 1681.66546,839.661013 1671.76657,771 C1633.23119,807.698375 1589.73086,838.822719 1542.5359,863.464117 C1470.83508,899.140911 1333.77866,962.683604 1383.69427,1173.15558 C1383.69427,1173.15558 1447.14632,1012.92666 1536.19069,979.783133 C1536.19069,980.627554 1452.857,1095.67994 1434.87892,1174 Z" id="Path"></path>
                        <path class="leaf" d="M1810.46726,997 C1810.46726,997 1863.64855,978.854706 1932.38484,958.810486 C1987.50143,943.141482 2033.97077,905.780802 2061.23911,855.213519 C2091.51274,795.350991 2109.45691,729.978453 2114,663 C2070.37369,690.58556 2023.10806,711.89232 1973.58458,726.297536 C1898.96261,745.708781 1757.28597,778.412508 1762.12063,987.716361 C1762.12063,987.716361 1853.34861,848.461781 1944.3664,834.958307 C1944.3664,834.11434 1843.04868,926.106759 1810.46726,997 Z" id="Path"></path>
                        <path class="leaf" d="M1368.38196,813 C1368.38196,813 1414.15112,785.869341 1473.84085,753.901433 C1521.77507,728.637301 1557.50102,685.206492 1572.97222,633.390831 C1589.3553,572.324499 1593.22893,508.592277 1584.36178,446 C1549.16223,479.356979 1509.48108,507.670235 1466.45873,530.126074 C1401.07421,562.724928 1276.63272,620.561605 1321.55821,812.158739 C1321.55821,812.158739 1378.71693,666.2 1460.55303,635.914613 C1460.55303,636.755874 1384.62263,741.282521 1368.38196,813 Z" id="Path"></path>
                        <path class="leaf" d="M1755.27055,691 C1755.27055,691 1791.11375,674.133716 1837.92074,654.948318 C1875.35788,639.657743 1905.06851,609.949051 1920.36008,572.514356 C1937.02785,528.309794 1944.6285,481.203166 1942.70937,434 C1914.15314,456.515676 1882.56803,474.897724 1848.88454,488.604594 C1798.07154,507.789992 1701.29492,541.522559 1720.48157,687.415915 C1720.48157,687.415915 1773.82468,583.266612 1836.65569,566.821985 C1836.65569,566.821985 1772.55962,638.71452 1755.27055,691 Z" id="Path"></path>
                        <path class="leaf" d="M1916.42017,1142.58667 C1916.42017,1142.58667 1954.23529,1152.25242 2000.45378,1166.54092 C2038.1918,1178.11133 2078.99599,1174.02254 2113.68908,1155.19417 C2153.52807,1132.09676 2188.3204,1101.22773 2216,1064.42018 C2180.367,1063.81789 2145,1058.15807 2110.95798,1047.61018 C2060.53782,1030.80018 1966.42017,996.339689 1891,1118.63242 C1891,1118.63242 1996.04202,1072.82518 2053.39496,1099.30093 C2054.86555,1099.30093 1962.0084,1114.00967 1916.42017,1142.58667 Z" id="Path"></path>
                        <path class="leaf" d="M1781.19961,1376.81467 C1781.19961,1376.81467 1830.52872,1391.12018 1892.29552,1412.36809 C1941.81687,1429.36079 1996.09222,1425.87612 2043.02337,1402.69082 C2096.96465,1373.93944 2144.56592,1334.66319 2183,1287.1948 C2136.0126,1284.66067 2089.60919,1275.59731 2045.13145,1260.26677 C1979.14849,1235.65286 1855.40409,1185.79392 1750,1344.41687 C1750,1344.41687 1890.81986,1288.66743 1966.07838,1326.11423 C1966.5,1325.69347 1842.7556,1341.05087 1781.19961,1376.81467 Z" id="Path"></path>
                        <path class="leaf" d="M2004.41347,1551.63851 C2004.41347,1551.63851 2040.14815,1561.94263 2084.97508,1577.29366 C2120.95579,1589.59137 2160.38438,1587.09329 2194.50505,1570.35415 C2233.73395,1549.46808 2268.26897,1520.84674 2296,1486.2389 C2261.9629,1484.50084 2228.35265,1477.9148 2196.19663,1466.68211 C2148.19798,1449.01791 2058.75556,1412.84835 1982,1527.24509 C1982,1527.24509 2084.34074,1487.08006 2138.89428,1514.20723 C2138.89428,1515.67924 2049.02896,1525.77307 2004.41347,1551.63851 Z" id="Path"></path>
                        <path class="leaf" d="M1429.77956,1521.0482 C1429.77956,1521.0482 1464.28858,1534.93274 1507.42485,1554.28694 C1541.83505,1569.98066 1581.10944,1571.19349 1616.42285,1557.65289 C1657.23294,1540.72087 1694.17355,1515.67009 1725,1484.02277 C1691.36966,1478.71824 1658.64744,1468.73392 1627.78557,1454.36035 C1581.91383,1432.06094 1496.90381,1387.6725 1410,1494.54136 C1410,1494.54136 1515.21042,1463.82708 1566.55311,1496.22433 C1566.55311,1496.4347 1476.49299,1499.59028 1429.77956,1521.0482 Z" id="Path"></path>
                        <path class="leaf" d="M1373,1729.21108 C1373,1729.21108 1390.41455,1762.10921 1410.34687,1804.91895 C1426.39924,1839.19616 1455.40181,1865.61398 1490.9154,1878.30707 C1532.88993,1891.76649 1577.12082,1896.6424 1621,1892.64728 C1598.86679,1867.23224 1580.36513,1838.84117 1566.02876,1808.29311 C1545.04738,1761.47655 1509.58883,1672.27202 1374.67851,1697.36738 C1374.67851,1697.36738 1474.13029,1742.49686 1492.38409,1800.49035 C1492.38409,1799.64681 1422.30626,1743.12952 1373,1729.21108 Z" id="Path"></path>
                        <path class="leaf" d="M1697.64309,1725.0041 C1697.64309,1725.0041 1742.71383,1738.03521 1798.73633,1757.16151 C1843.66976,1772.80261 1893.02556,1769.69578 1935.63344,1748.54417 C1984.36786,1722.29108 2027.33607,1686.55765 2062,1643.45459 C2019.3504,1641.14815 1977.23741,1632.87017 1936.89711,1618.86363 C1876.87299,1596.37446 1765.03859,1551.18594 1669,1694.94848 C1669,1694.94848 1797.05145,1644.2953 1865.28939,1678.34433 C1866.13183,1678.55451 1753.66559,1692.42633 1697.64309,1725.0041 Z" id="Path"></path>
                        <path class="leaf" d="M1439.1748,447.028179 C1439.1748,447.028179 1462.84554,417.699656 1494.75877,382.041237 C1520.27537,353.443114 1533.22017,315.81319 1530.68758,277.597938 C1526.56269,233.238004 1513.47781,190.172332 1492.22262,151 C1477.12455,181.63725 1457.84994,210.039831 1434.94788,235.398625 C1399.65311,272.956014 1330.96569,340.896907 1408.31829,458 C1408.31829,458 1410.43175,347.015808 1457.1392,307.137457 C1457.1392,307.55945 1432.41173,395.334021 1439.1748,447.028179 Z" id="Path"></path>
                        <path class="leaf" d="M1094.6648,288.796742 C1094.6648,288.796742 1121.3248,262.083569 1156.44828,229.691218 C1184.85225,203.967916 1201.63206,167.952352 1202.99747,129.779745 C1203.17137,85.242702 1194.39515,41.1197096 1177.18382,0 C1159.13692,29.211695 1137.05785,55.7628021 1111.59178,78.8774788 C1072.65973,112.74221 997.334679,174.161473 1062.71513,297 C1062.71513,297 1075.83354,187.20255 1126.1913,152.286119 C1126.40289,152.286119 1093.18369,236.842776 1094.6648,288.796742 Z" id="Path"></path>
                        <path class="leaf" d="M1119.20878,950.312883 C1119.20878,950.312883 1137.49635,931.777096 1161.24919,909.449898 C1180.60004,891.495521 1192.02118,866.55992 1192.98969,840.151329 C1193.2839,809.210306 1187.27574,778.53439 1175.33272,750 C1162.91711,770.296481 1147.7023,788.733598 1130.13928,804.764826 C1103.44362,828.145194 1051.73392,870.903885 1096.71716,956 C1096.71716,956 1105.75585,879.961145 1140.43918,855.527607 C1128.62357,885.866278 1121.46546,917.824357 1119.20878,950.312883 L1119.20878,950.312883 Z" id="Path"></path>
                        <path class="leaf" d="M1139.06038,659.856107 C1139.06038,659.856107 1172.60643,626.003904 1217.33451,585.002789 C1252.99462,552.435422 1274.11224,507.013224 1275.98736,458.84551 C1276.42742,402.275172 1265.37521,346.201184 1243.49621,294 C1220.64983,331.092776 1192.66496,364.786626 1160.36951,394.084774 C1110.99984,436.1372 1015.84719,515.195761 1098.55193,671 C1098.55193,671 1115.21947,531.80647 1179.14686,487.230898 C1179.14686,486.600112 1136.95056,594.04406 1139.06038,659.856107 Z" id="Path"></path>
                        <path class="leaf" d="M1648.9285,392.74793 C1648.9285,392.74793 1666.60647,371.588776 1691.01891,344.081877 C1710.07896,322.770336 1719.72364,294.595854 1717.74631,266.0046 C1714.60966,232.732889 1704.87784,200.429586 1689.12484,171 C1678.1488,194.052671 1663.97767,215.424464 1647.03444,234.477461 C1620.72793,262.619135 1569.79855,314.24747 1627.25195,401 C1627.25195,401 1628.72511,318.056118 1663.44969,288.221711 C1653.3206,322.112014 1648.42322,357.364216 1648.9285,392.74793 L1648.9285,392.74793 Z" id="Path"></path>
                    </g>
                    <path d="M2152.00273,2601.55998 C2130.76281,2591.38256 2107.52554,2586.0578 2083.97421,2585.97141 C2056.96698,2585.47084 2030.06396,2589.45726 2004.36188,2597.76817 C1949.8127,2615.04199 1843.45232,2656.75195 1773.9495,2735.74808 C1773.9495,2735.74808 1436.96612,2716.3677 1324.91915,2567.223 C1324.91915,2567.223 1270.58058,2495.59983 1261.73476,2482.96045 C1252.88895,2470.32107 1243.62191,2318.43784 1298.38171,2220.06132 C1353.14151,2121.6848 1352.72028,1960.32203 1272.89734,1744.60992 C1261.76856,1712.41313 1253.93568,1679.16974 1249.51912,1645.39078 C1240.76768,1576.81211 1261.8584,1507.77424 1307.43813,1455.80006 C1336.9278,1422.38445 1372.07679,1394.43083 1411.27114,1373.22277 C1411.27114,1373.22277 1496.99128,1332.9874 1557.22706,1302.44223 C1617.46284,1271.89706 1748.67575,1218.17969 1815.86181,1173.94185 L1859.66965,1146.13521 L1847.454,1114.53676 C1847.454,1114.53676 1678.96231,1182.78942 1584.39635,1218.601 C1489.83039,1254.41258 1348.50798,1301.5996 1227.82581,1361.0047 C1227.82581,1361.0047 1185.70289,1384.59821 1169.27495,1347.31203 C1169.27495,1347.31203 1159.58668,1317.82014 1173.27663,1305.18076 C1215.3208,1293.86233 1245.73985,1257.3691 1249.3085,1213.96656 C1253.94202,1148.45243 1249.3085,1045.44147 1161.69282,1015.94958 C1133.14611,1005.85679 1101.61979,1008.70242 1075.34083,1023.74387 C1046.69725,1041.22835 1017.42181,1079.35715 1029.63746,1162.1451 C1034.04981,1191.08656 1041.97112,1219.38255 1053.2263,1246.40764 C1068.98452,1280.63222 1068.98452,1320.03912 1053.2263,1354.26369 C1053.2263,1354.26369 1009.83969,1340.57103 945.812847,1327.51034 C909.335304,1320.0836 873.949359,1308.04999 840.505541,1291.69876 C811.019496,1277.16347 775.004397,1258.83636 745.939581,1241.56254 C685.703802,1205.75096 519.739489,1126.12286 456.76572,1109.48101 L445.392531,1126.96548 L586.50432,1227.23791 C666.271311,1282.23049 750.130322,1331.0347 837.346322,1373.22277 C893.323806,1402.8909 942.134056,1444.44895 980.353643,1494.98214 C1018.32553,1543.49363 1038.01025,1603.82734 1035.9559,1665.40313 C1035.14278,1715.62426 1024.10672,1765.15299 1003.52125,1810.96668 C955.501119,1912.50304 956.343578,2013.82875 986.040238,2175.40217 C1015.7369,2336.9756 1023.52964,2449.25544 939.705023,2542.5762 C939.705023,2542.5762 863.673149,2700.77913 485.409307,2745.22762 C485.409307,2745.22762 348.931039,2586.60338 165.906942,2591.23782 C141.854502,2591.5212 118.173376,2597.20867 96.6147347,2607.87967 C62.8232318,2622.67147 41.8733103,2657.00586 44.1716965,2693.82747 C44.1716965,2693.82747 42.4867796,2801.26221 299.225991,2803.79008 C299.225991,2803.79008 348.299195,3041.1998 662.74681,3035.51208 C662.74681,3035.51208 835.87202,3051.10065 1023.10841,2743.12105 C1065.94962,2656.96605 1094.7459,2564.51522 1108.40733,2469.26779 C1108.40733,2469.26779 1120.20175,2427.13652 1139.7889,2491.59736 C1159.37606,2556.05821 1232.88056,2770.92769 1155.585,2894.16166 C1155.585,2894.16166 997.834656,2876.04521 917.801104,2936.29293 C885.169455,2959.40405 874.184352,3002.8172 891.895507,3038.67192 C906.998257,3063.94512 933.16264,3080.58428 962.451401,3083.54173 C962.451401,3083.54173 1119.78052,3107.13524 1201.07776,2964.52088 C1273.16517,2969.23856 1342.19047,2995.43082 1399.26611,3039.7252 C1359.14057,2978.7688 1297.31295,2935.38297 1226.35151,2918.38714 C1240.25271,2873.41027 1249.35977,2827.0892 1253.52079,2780.19657 C1253.52079,2780.19657 1326.39345,2927.65602 1466.03094,3001.38575 C1566.51803,3052.44183 1685.81521,3050.15175 1784.26961,2995.27671 C1853.77244,2957.99054 1940.75627,2894.58297 1962.02835,2804.63271 C1962.02835,2804.63271 2083.97421,2800.8409 2154.5301,2753.86453 C2181.8775,2738.00518 2198.50102,2708.58364 2197.98848,2676.97003 C2197.45182,2645.35643 2179.86126,2616.50287 2152.00273,2601.55998 Z M114.727591,2681.18808 C114.585732,2676.88856 116.179784,2672.71284 119.150498,2669.60199 C126.311395,2661.38639 144.213637,2648.53635 178.543818,2667.49542 C213.007905,2689.0271 242.396387,2717.77459 264.685194,2751.75796 C264.685194,2751.75796 117.676196,2742.27843 114.727591,2681.18808 Z M229.512554,2673.3938 C205.923718,2656.33063 205.923718,2649.16832 205.923718,2649.16832 C305.544429,2639.89944 416.538329,2747.54484 416.538329,2747.54484 C378.722642,2752.55481 340.411511,2752.55481 302.595824,2747.54484 C293.750011,2723.31936 253.101391,2690.45696 229.512554,2673.3938 Z M596.192592,2976.94961 C398.636087,2948.08969 355.038863,2802.94746 355.038863,2802.94746 L481.407629,2796.83842 C550.489222,2934.18637 787.220045,2904.48382 787.220045,2904.48382 C739.142866,2958.31326 667.867651,2985.35133 596.192592,2976.94961 Z M830.39604,2864.24846 C590.084769,2904.27317 533.218824,2792.41464 533.218824,2792.41464 C843.454146,2762.71209 996.570968,2566.16971 996.570968,2566.16971 C1015.7369,2553.10902 1016.57936,2578.38778 1016.57936,2578.38778 C982.459789,2739.75055 830.39604,2864.24846 830.39604,2864.24846 Z M1161.48221,1995.92296 C1140.73174,2061.04475 1130.07744,2128.96158 1129.89002,2197.31043 C1119.5699,2004.55987 1164.85204,1947.89331 1164.85204,1947.89331 C1165.45297,1963.97772 1164.3232,1980.08013 1161.48221,1995.92296 L1161.48221,1995.92296 Z M1042.48495,3019.29154 C1031.52853,3022.86708 1020.09922,3024.78418 1008.576,3024.97926 C993.434906,3025.69323 978.279399,3023.91406 963.715089,3019.71285 C955.307605,3016.99267 948.908985,3010.11052 946.806252,3001.52624 C944.703519,2992.94195 947.196814,2983.88085 953.394973,2977.58158 C1002.67879,2930.39455 1121.88666,2947.24706 1121.88666,2947.24706 C1109.88163,2990.64227 1066.70563,3010.86528 1042.48495,3019.29154 L1042.48495,3019.29154 Z M1425.80355,2862.1419 C1425.80355,2862.1419 1272.89734,2738.0653 1240.46269,2576.49188 C1240.46269,2576.49188 1240.46269,2551.21311 1261.52415,2564.27381 C1261.52415,2564.27381 1413.37728,2760.81619 1723.61261,2790.51873 C1722.77015,2790.51873 1666.11482,2902.37726 1425.80355,2862.1419 L1425.80355,2862.1419 Z M1659.79638,2975.0537 C1587.8728,2984.00567 1516.12363,2957.17308 1467.71585,2903.21988 C1467.71585,2903.21988 1704.44668,2932.92243 1773.52827,2795.78514 L1901.16072,2801.89418 C1901.16072,2801.89418 1857.35288,2946.19378 1659.79638,2975.0537 Z M1944.1261,2746.49156 C1909.19102,2751.33993 1873.75388,2751.33993 1838.8188,2746.49156 C1838.8188,2746.49156 1950.86577,2638.84616 2049.43341,2648.11504 C2049.43341,2648.11504 2049.43341,2655.27735 2025.84457,2672.34052 C1995.85177,2693.84082 1968.43196,2718.72145 1944.1261,2746.49156 L1944.1261,2746.49156 Z M1989.82947,2749.6514 C2012.89953,2715.73683 2042.81761,2687.03275 2077.65577,2665.38886 C2111.77533,2647.48307 2129.67758,2659.27982 2137.04909,2667.49542 C2139.87127,2670.59963 2141.38106,2674.67686 2141.26138,2678.87086 C2138.31278,2739.75055 1989.82947,2749.6514 1989.82947,2749.6514 L1989.82947,2749.6514 Z" id="Shape"></path>
                </g>
            </g>
        </g>
    </g>
</svg>