<?xml version="1.0" encoding="UTF-8"?>
<svg width="450px" height="640px" viewBox="0 0 450 640" version="1.1" xmlns="http://www.w3.org/2000/svg" xmlns:xlink="http://www.w3.org/1999/xlink">
    <title>005-hand-nadis</title>
    <g id="Page-1" stroke="none" stroke-width="1" fill="none" fill-rule="evenodd">
        <g id="005-hand-nadis" fill="#FFFFFF" fill-rule="nonzero">
            <path d="M449.823926,338.740636 L449.823926,309.378747 C449.823926,279.81869 426.505184,255.713757 397.827203,255.713757 C384.159493,255.713757 371.658271,261.345031 362.381395,270.361674 L362.381395,140.726788 C362.381395,111.150217 339.392791,87.0838171 311.12198,87.0838171 C297.987993,87.0838171 286.125037,92.4453619 277.01323,100.988604 L277.01323,53.6925128 C277.007728,24.099428 253.694488,0 225.027511,0 C196.382544,0 173.047295,24.099428 173.047295,53.6925128 L173.047295,57.3971531 C163.852954,48.8869393 151.92397,43.5914506 138.608408,43.5914506 C109.996454,43.5914506 86.622689,67.6908786 86.622689,97.2674494 L86.622689,142.102954 C77.3953341,133.52118 65.367309,128.110093 51.9472024,128.110093 C23.2967329,128.110093 0,152.159979 0,181.703522 L0,292.985851 L0,446.329334 L0,481.394057 C0,588.052466 73.5932456,640 225,640 C376.390247,640 450,588.046962 450,481.394057 L450,339.142476 L449.823926,338.740636 Z M225.060525,622.974068 C83.2717891,622.974068 17.183679,577.995441 17.183679,481.592225 L17.183679,446.538511 L17.183679,293.150991 L17.183679,181.885176 C17.183679,161.776631 32.7937005,145.400249 52.01323,145.400249 C70.9796537,145.400249 86.3200626,161.424332 86.6942189,181.197093 L86.6942189,322.309207 L86.842781,322.611964 L86.842781,356.438137 C86.842781,361.227196 90.6778832,365.019911 95.4208647,365.019911 C100.180353,365.019911 103.998948,361.232701 103.998948,356.438137 L103.998948,181.885176 L103.850386,180.50901 L103.850386,97.388552 C103.850386,77.2249602 119.46591,60.9036253 138.712951,60.9036253 C157.277707,60.9036253 172.166928,76.305681 173.157341,95.5279749 L173.157341,328.248742 L173.542502,329.151507 L173.542502,352.783039 C173.542502,357.53907 177.377604,361.364813 182.120586,361.364813 C186.858065,361.364813 190.69867,357.544575 190.69867,352.783039 L190.69867,97.454608 L190.313509,93.6839118 L190.313509,53.8301294 C190.313509,33.6885563 205.92353,17.3121748 225.110046,17.3121748 C244.357087,17.3121748 259.972611,33.7491076 259.972611,53.8301294 L259.972611,140.875414 L259.972611,299.404292 L259.972611,355.298671 C259.972611,360.054703 263.758192,363.880446 268.550695,363.880446 C273.244155,363.880446 277.128778,360.060207 277.128778,355.298671 L277.128778,299.404292 L277.128778,140.875414 C277.128778,120.750355 292.375648,104.373973 311.237528,104.373973 C330.066394,104.373973 345.307762,120.777878 345.307762,140.875414 L345.307762,405.50673 C345.307762,410.268266 349.192385,414.088505 353.885846,414.088505 C358.678348,414.088505 362.463929,410.273771 362.463929,405.50673 L362.463929,393.842343 L363.168224,392.301036 L363.168224,309.510859 C363.168224,289.3858 378.783747,273.009418 397.981268,273.009418 C417.211802,273.009418 432.821823,289.413323 432.821823,309.510859 L432.821823,388.21107 L433.091436,388.816583 L433.091436,481.658281 C432.937372,578.061497 366.865768,622.974068 225.060525,622.974068 Z" id="Shape"></path>
            <path d="M212.550665,351.872571 C207.828329,351.872571 204,355.750687 204,360.436285 C204,365.182308 207.822844,369 212.550665,369 L235.432881,369 C240.188126,369 244,365.187801 244,360.436285 C244,355.750687 240.19361,351.872571 235.432881,351.872571 L232.525984,351.872571 L232.525984,280.127429 L235.432881,280.127429 C240.188126,280.127429 244,276.298751 244,271.563715 C244,266.828678 240.19361,263 235.432881,263 L212.550665,263 C207.828329,263 204,266.828678 204,271.563715 C204,276.298751 207.822844,280.127429 212.550665,280.127429 L215.424654,280.127429 L215.424654,351.878064 L212.550665,351.878064 L212.550665,351.872571 Z" id="Path"></path>
            <path d="M158.942299,380.591798 C158.942299,375.890833 155.152634,372 150.392245,372 L127.550054,372 C122.828055,372 119,375.890833 119,380.591798 C119,385.358895 122.822571,389.183596 127.550054,389.183596 L129.771203,389.183596 L159.891086,542.816404 L156.819867,542.816404 C152.092384,542.816404 148.269813,546.635593 148.269813,551.408202 C148.269813,556.109167 152.092384,560 156.819867,560 L181.449946,560 C186.193882,560 190,556.109167 190,551.408202 C190,546.641105 186.193882,542.816404 181.449946,542.816404 L177.309285,542.816404 L147.172949,389.183596 L150.392245,389.183596 C155.086822,389.183596 158.942299,385.358895 158.942299,380.591798 Z" id="Path"></path>
            <path d="M212.550665,539.851746 C207.828329,539.851746 204,543.66858 204,548.425873 C204,553.144668 207.822844,557 212.550665,557 L235.432881,557 C240.188126,557 244,553.150167 244,548.425873 C244,543.674079 240.19361,539.851746 235.432881,539.851746 L232.909914,539.851746 L232.909914,390.153754 L235.432881,390.153754 C240.188126,390.153754 244,386.303922 244,381.579627 C244,376.822334 240.19361,373 235.432881,373 L212.550665,373 C207.828329,373 204,376.816834 204,381.579627 C204,386.298422 207.822844,390.153754 212.550665,390.153754 L215.808584,390.153754 L215.808584,539.851746 L212.550665,539.851746 Z" id="Path"></path>
            <path d="M212.550665,241.872571 C207.828329,241.872571 204,245.717728 204,250.436285 C204,255.165829 207.822844,259 212.550665,259 L235.432881,259 C240.188126,259 244,255.171322 244,250.436285 C244,245.717728 240.19361,241.872571 235.432881,241.872571 L232.525984,241.872571 L232.525984,170.127429 L235.432881,170.127429 C240.188126,170.127429 244,166.282272 244,161.563715 C244,156.828678 240.19361,153 235.432881,153 L212.550665,153 C207.828329,153 204,156.828678 204,161.563715 C204,166.282272 207.822844,170.127429 212.550665,170.127429 L215.424654,170.127429 L215.424654,241.905529 L212.550665,241.905529 L212.550665,241.872571 Z" id="Path"></path>
            <path d="M212.550665,130.877895 C207.828329,130.877895 204,134.721857 204,139.438947 C204,144.172512 207.822844,148 212.550665,148 L235.432881,148 C240.188126,148 244,144.172512 244,139.438947 C244,134.721857 240.19361,130.877895 235.432881,130.877895 L232.525984,130.877895 L232.525984,59.1221054 L235.432881,59.1221054 C240.188126,59.1221054 244,55.2781433 244,50.5610527 C244,45.8329793 240.19361,42 235.432881,42 L212.550665,42 C207.828329,42 204,45.827488 204,50.5610527 C204,55.2726519 207.822844,59.1221054 212.550665,59.1221054 L215.424654,59.1221054 L215.424654,130.877895 L212.550665,130.877895 Z" id="Path"></path>
            <path d="M127.551838,351.872571 C122.84531,351.872571 119,355.750687 119,360.436285 C119,365.182308 122.84531,369 127.551838,369 L150.448162,369 C155.193088,369 159,365.187801 159,360.436285 C159,355.750687 155.193088,351.872571 150.448162,351.872571 L147.579265,351.872571 L147.579265,280.127429 L150.448162,280.127429 C155.193088,280.127429 159,276.298751 159,271.563715 C159,266.828678 155.193088,263 150.448162,263 L127.551838,263 C122.84531,263 119,266.828678 119,271.563715 C119,276.298751 122.84531,280.127429 127.551838,280.127429 L130.47559,280.127429 L130.47559,351.878064 L127.551838,351.878064 L127.551838,351.872571 Z" id="Path"></path>
            <path d="M127.551838,241.872571 C122.84531,241.872571 119,245.717728 119,250.436285 C119,255.165829 122.84531,259 127.551838,259 L150.448162,259 C155.193088,259 159,255.171322 159,250.436285 C159,245.717728 155.193088,241.872571 150.448162,241.872571 L147.579265,241.872571 L147.579265,170.127429 L150.448162,170.127429 C155.193088,170.127429 159,166.282272 159,161.563715 C159,156.828678 155.193088,153 150.448162,153 L127.551838,153 C122.84531,153 119,156.828678 119,161.563715 C119,166.282272 122.84531,170.127429 127.551838,170.127429 L130.47559,170.127429 L130.47559,241.905529 L127.551838,241.905529 L127.551838,241.872571 Z" id="Path"></path>
            <path d="M37.5518376,351.872571 C32.8123971,351.872571 29,355.750687 29,360.436285 C29,365.182308 32.8069117,369 37.5518376,369 L60.4481624,369 C65.1601755,369 69,365.187801 69,360.436285 C69,355.750687 65.1601755,351.872571 60.4481624,351.872571 L57.5244103,351.872571 L57.5244103,280.127429 L60.4481624,280.127429 C65.1601755,280.127429 69,276.298751 69,271.563715 C69,266.828678 65.1601755,263 60.4481624,263 L37.5518376,263 C32.8123971,263 29,266.828678 29,271.563715 C29,276.298751 32.8069117,280.127429 37.5518376,280.127429 L40.4262205,280.127429 L40.4262205,351.878064 L37.5518376,351.878064 L37.5518376,351.872571 Z" id="Path"></path>
            <path d="M37.5518376,241.860555 C32.8123971,241.860555 29,245.70841 29,250.430277 C29,255.163139 32.8069117,259 37.5518376,259 L60.4481624,259 C65.1601755,259 69,255.168636 69,250.430277 C69,245.70841 65.1601755,241.860555 60.4481624,241.860555 L57.5244103,241.860555 L57.5244103,189.139445 L60.4481624,189.139445 C65.1601755,189.139445 69,185.308081 69,180.569723 C69,175.853352 65.1601755,172 60.4481624,172 L37.5518376,172 C32.8123971,172 29,175.853352 29,180.569723 C29,185.308081 32.8069117,189.139445 37.5518376,189.139445 L40.4262205,189.139445 L40.4262205,241.855058 L37.5518376,241.855058 L37.5518376,241.860555 Z" id="Path"></path>
            <path d="M127.551838,131.814936 C122.84531,131.814936 119,135.673032 119,140.407468 C119,145.158438 122.84531,149 127.551838,149 L150.448162,149 C155.193088,149 159,145.158438 159,140.407468 C159,135.673032 155.193088,131.814936 150.448162,131.814936 L147.579265,131.814936 L147.579265,95.1850644 L150.448162,95.1850644 C155.193088,95.1850644 159,91.3435026 159,86.5925322 C159,81.8470734 155.193088,78 150.448162,78 L127.551838,78 C122.84531,78 119,81.8415619 119,86.5925322 C119,91.3435026 122.84531,95.1850644 127.551838,95.1850644 L130.47559,95.1850644 L130.47559,131.814936 L127.551838,131.814936 Z" id="Path"></path>
            <path d="M323.452851,280.116785 C328.189693,280.116785 332,276.290486 332,271.558392 C332,266.826299 328.195175,263 323.452851,263 L300.547149,263 C295.876096,263 292,266.826299 292,271.558392 C292,276.290486 295.876096,280.116785 300.547149,280.116785 L303.419956,280.116785 L303.419956,351.883215 L300.547149,351.883215 C295.876096,351.883215 292,355.660107 292,360.441608 C292,365.124294 295.876096,369 300.547149,369 L323.452851,369 C328.189693,369 332,365.124294 332,360.441608 C332,355.660107 328.195175,351.883215 323.452851,351.883215 L320.514254,351.883215 L320.514254,280.116785 L323.452851,280.116785 Z" id="Path"></path>
            <path d="M407.437594,331.121218 C412.122477,331.121218 416,327.277455 416,322.560609 C416,317.810816 412.122477,314 407.437594,314 L384.562406,314 C379.817108,314 376,317.805325 376,322.560609 C376,327.271964 379.811616,331.121218 384.562406,331.121218 L387.440341,331.121218 L387.440341,402.873291 L384.562406,402.873291 C379.817108,402.873291 376,406.684107 376,411.4339 C376,416.183692 379.811616,420 384.562406,420 L407.437594,420 C412.122477,420 416,416.189184 416,411.4339 C416,406.689598 412.122477,402.873291 407.437594,402.873291 L404.565152,402.873291 L404.565152,331.121218 L407.437594,331.121218 Z" id="Path"></path>
            <path d="M407.410282,426 L384.550122,426 C379.807942,426 375.993342,429.865491 375.993342,434.609 L380.34034,441.434353 L319.449436,542.776477 L311.55678,542.776477 C306.874976,542.776477 303,546.641968 303,551.385478 C303,556.156598 306.874976,560 311.55678,560 L336.255633,560 C340.964881,560 344.817902,556.16212 344.817902,551.385478 C344.817902,547.724306 342.144937,545.035028 338.79687,543.82016 L399.287104,443.151735 L407.437725,443.151735 C412.218326,443.151735 416,439.35251 416,434.542735 C416.005483,429.76057 412.059155,426 407.410282,426 Z" id="Path"></path>
            <path d="M297.503335,150.211426 L302.955731,150.211426 L302.955731,241.788574 L300.095816,241.788574 C295.445725,241.788574 291.587022,245.652589 291.587022,250.394287 C291.587022,255.147025 295.445725,259 300.095816,259 L322.898727,259 C327.614312,259 331.40752,255.152545 331.40752,250.394287 C331.40752,245.652589 327.61977,241.788574 322.898727,241.788574 L319.973317,241.788574 L319.973317,150.211426 L325.491207,150.211426 C330.21225,150.211426 334,146.347411 334,141.605713 C334,136.852975 330.217708,133 325.491207,133 L297.508793,133 C292.793208,133 289,136.847455 289,141.605713 C289,146.347411 292.78775,150.211426 297.503335,150.211426 Z" id="Path"></path>
            <path d="M337.415576,576 L104.584424,576 C99.843443,576 96,579.783836 96,584.5 C96,589.216164 99.8379367,593 104.584424,593 L337.415576,593 C342.173076,593 346,589.216164 346,584.5 C346,579.783836 342.140038,576 337.415576,576 Z" id="Path"></path>
            <path d="M125.391584,559.994489 C130.184468,559.994489 134,556.103655 134,551.402691 C134,546.635593 130.184468,542.810893 125.391584,542.810893 L121.636791,542.810893 L121.636791,542.270806 L60.6987065,387.976666 C63.7577586,386.631958 66.2149394,384.151966 66.2149394,380.591798 C66.2149394,375.890833 62.3497111,372 57.6065239,372 L34.6084156,372 C29.8155325,372 26,375.890833 26,380.591798 C26,385.358895 29.8155325,389.183596 34.6084156,389.183596 L42.6591339,389.183596 L103.299044,542.816404 L100.64308,542.816404 C95.8501968,542.816404 92.0346643,546.635593 92.0346643,551.408202 C92.0346643,556.109167 95.8501968,560 100.64308,560 L125.391584,560 L125.391584,559.994489 Z" id="Path"></path>
            <path d="M259.565399,560 L284.37571,560 C289.159488,560 293.00755,556.107797 293.00755,551.405179 C293.00755,547.110525 289.702092,543.92399 285.521824,543.278965 L314.379521,389.195156 L319.36816,389.195156 C324.151938,389.195156 328,385.336031 328,380.600334 C328,375.831559 324.157475,372 319.36816,372 L296.307471,372 C291.523693,372 287.675631,375.826046 287.675631,380.600334 C287.675631,385.330518 291.518156,389.195156 296.307471,389.195156 L296.850076,389.195156 L268.125261,542.843436 L259.63184,542.843436 C254.848062,542.843436 251,546.636404 251,551.438257 C251,556.107797 254.809305,560 259.565399,560 Z" id="Path"></path>
        </g>
    </g>
</svg>