<?xml version="1.0" encoding="UTF-8"?>
<svg width="385px" height="265px" viewBox="0 0 385 265" version="1.1" xmlns="http://www.w3.org/2000/svg" xmlns:xlink="http://www.w3.org/1999/xlink">
    <!-- Generator: Sketch 57.1 (83088) - https://sketch.com -->
    <title>menu</title>
    <desc>Created with Sketch.</desc>
    <g id="Page-1" stroke="none" stroke-width="1" fill="none" fill-rule="evenodd">
        <g id="menu" fill="#FFFFFF" fill-rule="nonzero">
            <path d="M12.03,24.212 L372.939,24.212 C379.58,24.212 384.969,18.822 384.969,12.182 C384.969,5.541 379.579,0.152 372.939,0.152 L12.03,0.152 C5.39,0.152 0,5.541 0,12.182 C0,18.823 5.39,24.212 12.03,24.212 Z" id="Path"></path>
            <path d="M372.939,120.455 L12.03,120.455 C5.389,120.455 0,125.845 0,132.485 C0,139.125 5.39,144.515 12.03,144.515 L372.939,144.515 C379.58,144.515 384.969,139.125 384.969,132.485 C384.969,125.845 379.58,120.455 372.939,120.455 Z" id="Path"></path>
            <path d="M372.939,240.758 L12.03,240.758 C5.389,240.758 0,246.148 0,252.788 C0,259.429 5.39,264.818 12.03,264.818 L372.939,264.818 C379.58,264.818 384.969,259.428 384.969,252.788 C384.969,246.147 379.58,240.758 372.939,240.758 Z" id="Path"></path>
        </g>
    </g>
</svg>