<?xml version="1.0" encoding="UTF-8"?>
<svg width="470px" height="428px" viewBox="0 0 470 428" version="1.1" xmlns="http://www.w3.org/2000/svg" xmlns:xlink="http://www.w3.org/1999/xlink">
    <title>plant</title>
    <g id="Page-1" stroke="none" stroke-width="1" fill="none" fill-rule="evenodd">
        <g id="plant" fill="#FFFFFF" fill-rule="nonzero">
            <path d="M188.885,46.36 C147.84,5.336 67.52,0.579 10.667,0.579 C4.779,0.579 0,5.357 0,11.245 C0,68.098 4.736,148.418 45.781,189.464 C63.104,206.787 89.664,214.531 115.989,214.531 C144.597,214.531 172.949,205.379 188.885,189.443 C219.456,158.872 225.067,82.52 188.885,46.36 Z M173.803,174.381 C150.976,197.186 87.595,201.09 60.886,174.381 C27.755,141.251 22.016,73.944 21.397,21.976 C73.365,22.595 140.672,28.333 173.802,61.464 C200.512,88.173 196.608,151.576 173.803,174.381 Z" id="Shape"></path>
            <path d="M459.157,42.776 C402.304,42.776 321.984,47.512 280.938,88.557 C244.757,124.717 250.367,201.069 280.938,231.64 C296.874,247.555 325.205,256.707 353.813,256.707 C380.138,256.707 406.677,248.984 424.042,231.662 C465.066,190.617 469.823,110.297 469.823,53.443 C469.823,47.555 465.045,42.776 459.157,42.776 Z M408.917,216.557 C382.208,243.266 318.805,239.362 296,216.557 C273.195,193.752 269.291,130.349 296,103.64 C329.131,70.509 396.437,64.771 448.405,64.152 C447.787,116.141 442.048,183.448 408.917,216.557 Z" id="Shape"></path>
            <path d="M382.123,135.107 C379.606,129.752 372.395,127.918 367.083,130.392 C285.27,168.856 245.078,235.928 226.816,304.877 C204.224,158.274 138.88,113.581 111.168,94.616 C107.712,92.248 105.024,90.52 103.531,89.048 C99.371,84.888 92.608,84.888 88.448,89.048 C84.288,93.208 84.288,99.971 88.448,104.131 C90.56,106.222 94.208,108.846 99.136,112.216 C130.368,133.571 213.333,190.339 213.333,416.579 C213.333,422.467 218.112,427.246 224,427.246 C229.888,427.246 234.667,422.467 234.667,416.601 C234.667,325.188 259.222,204.676 376.171,149.721 C376.171,149.7 377.899,148.889 377.899,148.889 C383.211,146.371 384.64,140.44 382.123,135.107 Z" id="Path"></path>
        </g>
    </g>
</svg>