<?xml version="1.0" encoding="UTF-8"?>
<svg width="99px" height="70px" viewBox="0 0 99 70" version="1.1" xmlns="http://www.w3.org/2000/svg" xmlns:xlink="http://www.w3.org/1999/xlink">
    <!-- Generator: Sketch 60 (88103) - https://sketch.com -->
    <title>Group 7</title>
    <desc>Created with Sketch.</desc>
    <g id="Page-1" stroke="none" stroke-width="1" fill="none" fill-rule="evenodd">
        <g id="Group-7">
            <rect id="Rectangle" fill="#FFFFFF" x="29" y="11" width="43" height="47"></rect>
            <path d="M78.4389687,0 L20.5610313,0 C9.20547678,0 0,9.19826127 0,20.544915 L0,49.455085 C0,60.8017387 9.20547678,70 20.5610313,70 L78.4389687,70 C89.7945232,70 99,60.8017387 99,49.455085 L99,20.544915 C99,9.19826127 89.7945232,0 78.4389687,0 Z M64.5336865,36.4065834 L37.4622918,49.3078819 C36.7409463,49.6516419 35.907716,49.1261312 35.907716,48.3276725 L35.907716,21.7186772 C35.907716,20.9088457 36.7628508,20.3839787 37.4856996,20.7500552 L64.5570942,34.4577519 C65.3619775,34.8652427 65.3480188,36.0186196 64.5336865,36.4065834 Z" id="Shape" fill="#F61C0D" fill-rule="nonzero"></path>
        </g>
    </g>
</svg>